<?xml version="1.0" encoding="UTF-8"?><svg id="Layer_1" xmlns="http://www.w3.org/2000/svg" xmlns:xlink="http://www.w3.org/1999/xlink" viewBox="0 0 300 96.13"><defs><style>.cls-1{fill:url(#linear-gradient);}.cls-2{fill:#ed0331;}.cls-3{fill:#16bbe5;}</style><linearGradient id="linear-gradient" x1="29.94" y1="26.1" x2="40.42" y2="36.33" gradientUnits="userSpaceOnUse"><stop offset="0" stop-color="#15cfff"/><stop offset="1" stop-color="#1196b7"/></linearGradient></defs><polygon class="cls-1" points="37.14 39.9 26.31 29.28 33.24 22.56 44.08 33.18 37.14 39.9"/><path d="m296.95,90.29c.16-.03.38-.05.6-.05.33,0,.55.06.7.2.12.11.19.27.19.46,0,.32-.2.53-.46.62h0c.19.07.3.25.36.5.08.34.14.57.19.66h-.32c-.04-.07-.09-.28-.16-.58-.07-.33-.2-.46-.48-.47h-.29v1.05h-.31v-2.38Zm.31,1.1h.32c.33,0,.55-.18.55-.46,0-.31-.23-.45-.56-.45-.15,0-.26.01-.31.03v.88Z"/><path d="m297.66,93.77c-1.29,0-2.34-1.05-2.34-2.34s1.05-2.34,2.34-2.34,2.34,1.05,2.34,2.34-1.05,2.34-2.34,2.34Zm0-4.35c-1.11,0-2.01.9-2.01,2.01s.9,2.01,2.01,2.01,2.01-.9,2.01-2.01-.9-2.01-2.01-2.01Z"/><path d="m154.03,78.3c.71-.37,1.51-.56,2.42-.56,1.05,0,2.01.26,2.86.78.85.52,1.53,1.26,2.03,2.22.5.96.75,2.07.75,3.33s-.25,2.38-.75,3.35c-.5.97-1.17,1.73-2.03,2.26-.85.53-1.81.8-2.86.8-.92,0-1.73-.18-2.42-.55s-1.24-.84-1.66-1.41v1.76h-3.12v-16.49h3.12v5.95c.4-.59.95-1.08,1.66-1.45Zm4.41,3.84c-.3-.54-.71-.95-1.2-1.24-.5-.28-1.04-.42-1.62-.42s-1.1.14-1.59.43c-.5.29-.9.71-1.2,1.26-.3.55-.46,1.2-.46,1.94s.15,1.39.46,1.94c.3.55.71.97,1.2,1.26.5.29,1.03.43,1.59.43s1.12-.15,1.62-.45c.5-.3.9-.72,1.2-1.27.3-.55.46-1.2.46-1.96s-.15-1.38-.46-1.93Z"/><path d="m176.16,77.95l-7.64,18.18h-3.32l2.67-6.15-4.95-12.03h3.5l3.19,8.62,3.23-8.62h3.32Z"/><path d="m110.1,12.71h-11.88v36.54h7.82v-12.49h4.06c8.43,0,14.06-4.16,14.06-12.03s-5.63-12.03-14.06-12.03Zm.41,17.46h-4.47v-10.91h4.26c3.5,0,5.94,1.83,5.94,5.48s-2.33,5.43-5.73,5.43Z"/><path d="m135.63,28.04c-.05-.3-.05-.91-.05-1.67l-.15-2.49h-6.9v25.38h7.56v-10.81c0-4.62,3.15-8.02,7-8.02.96,0,1.57.25,1.67.3v-7.41c-.1-.05-.81-.15-1.62-.15-3.3,0-5.94,2.13-7.51,4.87Z"/><path d="m161.36,49.96c4.52,0,7.92-1.02,9.49-1.83v-6.45c-1.42.81-5.18,1.88-8.78,1.88-4.11,0-6.75-1.98-7.05-5.43h16.65c.05-.51.2-1.73.2-3.1,0-6.29-4.01-11.88-11.83-11.88-7.26,0-12.89,5.68-12.89,13.4s5.48,13.4,14.21,13.4Zm-1.37-20.81c3.1,0,4.72,2.33,4.62,5.08h-9.59c.2-2.74,1.93-5.08,4.97-5.08Z"/><path d="m192.52,49.96c6.34,0,11.62-5.02,11.62-13.4s-5.28-13.4-11.83-13.4c-3.7,0-7.05,2.08-8.22,4.57h-.1c-.05,0,.15-.71.1-1.73l-.15-2.13h-6.9v36.54h7.56v-12.23c0-1.42-.15-2.13-.15-2.13h.1c1.32,2.08,4.26,3.91,7.97,3.91Zm-1.57-20.4c3.5,0,6.04,2.84,6.04,7s-2.54,7-6.04,7c-3.04,0-6.09-2.33-6.09-7s3.05-7,6.09-7Z"/><path d="m216.78,40.32V12.71h-7.56v29.28c0,5.79,3.5,7.97,7.82,7.97,2.39,0,4.16-.46,4.82-.76v-6.24c-.46.2-1.52.51-2.54.51-1.52,0-2.54-.81-2.54-3.15Z"/><path d="m238.5,49.96c4.52,0,7.92-1.02,9.49-1.83v-6.45c-1.42.81-5.18,1.88-8.78,1.88-4.11,0-6.75-1.98-7.05-5.43h16.65c.05-.51.2-1.73.2-3.1,0-6.29-4.01-11.88-11.83-11.88-7.26,0-12.89,5.68-12.89,13.4s5.48,13.4,14.21,13.4Zm-1.37-20.81c3.1,0,4.72,2.33,4.62,5.08h-9.59c.2-2.74,1.93-5.08,4.97-5.08Z"/><path d="m253.07,42.25c0,5.18,3.7,7.71,8.07,7.71,4.67,0,7.21-3.3,7.87-4.82h.1s-.15.71-.1,1.78l.15,2.33h6.85v-15.99c0-6.34-3.91-10.1-11.72-10.1-4.47,0-7.87,1.07-9.29,1.73v6.8c1.67-1.07,4.87-2.18,8.07-2.18s5.43,1.12,5.43,4.16v.61c-9.14-1.27-15.43,1.78-15.43,7.97Zm10.05,1.93c-1.78,0-2.89-1.07-2.89-2.69,0-2.39,2.39-4.16,8.07-3.25,0,3.25-2.23,5.94-5.18,5.94Z"/><path d="m283.11,49.25h7.56v-19.44h5.63v-5.94h-5.94v-1.42c0-2.64,1.67-4.06,4.26-4.06,1.22,0,2.18.2,2.59.36v-6.45c-.46-.1-1.78-.3-3.35-.3-6.8,0-10.51,3.81-10.51,9.59v2.28h-3.6v5.94h3.35v19.44Z"/><path d="m46.9,23.21c-.87,1.73-1.95,3.47-3.25,5.2l-8.24-7.8v-1.08c0-1.73-.65-3.25-2.17-4.77s-3.03-2.17-4.99-2.17c-1.73,0-3.47.65-4.99,2.17l-5.85,5.85-7.59-7.37,6.07-6.07C20.67,2.62,25.44.02,30.64.02c4.99-.22,9.32,1.3,12.79,4.77,2.82,2.6,4.33,6.29,4.99,10.62.22,2.38-.22,4.99-1.52,7.8Z"/><rect x="18.37" y="10.78" width="11.27" height="55.96" transform="translate(-20.53 28.98) rotate(-45.85)"/><path d="m219.36,77.3c1.37,1.37,2.06,3.29,2.06,5.75v10.71h-4.61v-10.09c0-1.43-.36-2.52-1.09-3.28s-1.71-1.14-2.97-1.14-2.25.38-2.98,1.14c-.74.76-1.1,1.85-1.1,3.28v10.09h-4.61v-10.09c0-1.43-.36-2.52-1.09-3.28s-1.71-1.14-2.97-1.14-2.28.38-3.02,1.14c-.74.76-1.1,1.85-1.1,3.28v10.09h-4.61v-18.26h4.61v2.21c.59-.77,1.36-1.37,2.29-1.81.93-.44,1.96-.66,3.08-.66,1.43,0,2.7.3,3.82.91,1.12.6,1.99,1.47,2.6,2.59.59-1.05,1.46-1.9,2.59-2.54,1.13-.64,2.36-.96,3.68-.96,2.24,0,4.05.69,5.42,2.06Z"/><path d="m225.72,79.66c.74-1.43,1.74-2.53,3-3.3,1.26-.77,2.67-1.15,4.24-1.15,1.36,0,2.55.28,3.58.82,1.02.55,1.84,1.24,2.46,2.08v-2.6h4.65v18.26h-4.65v-2.67c-.59.86-1.41,1.57-2.46,2.13-1.04.56-2.25.84-3.61.84-1.54,0-2.94-.4-4.2-1.19-1.26-.79-2.26-1.91-3-3.35-.74-1.44-1.1-3.09-1.1-4.96s.37-3.48,1.1-4.91Zm12.61,2.09c-.44-.8-1.03-1.42-1.78-1.85-.75-.43-1.55-.64-2.41-.64s-1.65.21-2.37.63c-.73.42-1.31,1.03-1.76,1.83-.45.8-.68,1.75-.68,2.85s.22,2.06.68,2.88c.45.82,1.04,1.46,1.78,1.9.74.44,1.52.66,2.36.66s1.66-.21,2.41-.64c.75-.43,1.34-1.04,1.78-1.85.44-.8.66-1.76.66-2.88s-.22-2.08-.66-2.88Z"/><path d="m251.11,93.25c-1.19-.54-2.13-1.27-2.82-2.19-.69-.92-1.07-1.94-1.14-3.07h4.65c.09.7.43,1.29,1.04,1.75.6.46,1.36.69,2.26.69s1.57-.18,2.06-.53c.49-.35.74-.8.74-1.35,0-.59-.3-1.04-.91-1.33-.6-.3-1.57-.62-2.88-.97-1.36-.33-2.48-.67-3.35-1.02-.87-.35-1.61-.89-2.24-1.62-.63-.73-.94-1.7-.94-2.93,0-1.01.29-1.93.87-2.77.58-.83,1.42-1.49,2.5-1.98,1.09-.48,2.37-.73,3.84-.73,2.18,0,3.91.54,5.21,1.63,1.3,1.09,2.01,2.55,2.14,4.4h-4.42c-.07-.73-.37-1.3-.91-1.73-.54-.43-1.26-.64-2.16-.64-.84,0-1.48.15-1.93.46-.45.31-.68.74-.68,1.29,0,.62.31,1.08.92,1.4.61.32,1.57.64,2.87.97,1.32.33,2.41.67,3.26,1.02.86.35,1.6.9,2.22,1.63.63.74.95,1.71.97,2.92,0,1.05-.29,2-.87,2.83-.58.84-1.42,1.49-2.51,1.96-1.09.47-2.36.71-3.81.71s-2.83-.27-4.02-.81Z"/><path d="m266.03,79.66c.74-1.43,1.74-2.53,3-3.3,1.26-.77,2.67-1.15,4.24-1.15,1.36,0,2.55.28,3.58.82,1.02.55,1.84,1.24,2.46,2.08v-2.6h4.65v18.26h-4.65v-2.67c-.59.86-1.41,1.57-2.46,2.13-1.04.56-2.25.84-3.61.84-1.54,0-2.94-.4-4.2-1.19-1.26-.79-2.26-1.91-3-3.35-.74-1.44-1.1-3.09-1.1-4.96s.37-3.48,1.1-4.91Zm12.61,2.09c-.44-.8-1.03-1.42-1.78-1.85-.75-.43-1.55-.64-2.41-.64s-1.65.21-2.37.63c-.73.42-1.31,1.03-1.76,1.83-.45.8-.68,1.75-.68,2.85s.22,2.06.68,2.88c.45.82,1.04,1.46,1.78,1.9.74.44,1.52.66,2.36.66s1.66-.21,2.41-.64c.75-.43,1.34-1.04,1.78-1.85.44-.8.66-1.76.66-2.88s-.22-2.08-.66-2.88Z"/><path d="m288.77,72.55c-.54-.52-.81-1.16-.81-1.93s.27-1.41.81-1.93c.54-.52,1.21-.77,2.03-.77s1.49.26,2.03.77c.54.52.81,1.16.81,1.93s-.27,1.41-.81,1.93c-.54.52-1.21.77-2.03.77s-1.49-.26-2.03-.77Zm4.3,2.95v18.26h-4.61v-18.26h4.61Z"/><path class="cls-2" d="m293.07,75.51h-4.61v12.46l4.61-5.61v-6.85Z"/><path class="cls-3" d="m85.26,5.87s-39.88,39.23-40.1,39.45c-1.08,1.08-2.6,0-2.6,0l-5.42-5.42,6.94-6.72,12.11-11.99c6.14-6.08,13.66-10.58,21.91-13.12l7.16-2.2Z"/></svg>